<?xml version="1.0" encoding="utf-8"?>
<!-- Generator: Adobe Illustrator 24.0.2, SVG Export Plug-In . SVG Version: 6.00 Build 0)  -->
<svg version="1.1" id="Layer_1" xmlns="http://www.w3.org/2000/svg" xmlns:xlink="http://www.w3.org/1999/xlink" x="0px" y="0px"
	 viewBox="0 0 13.71 13.71" style="enable-background:new 0 0 13.71 13.71;" xml:space="preserve">
<style type="text/css">
	.st0{fill:#231F20;}
</style>
<path class="st0" d="M6.86,0C3.07,0,0,3.07,0,6.86s3.07,6.86,6.86,6.86s6.86-3.07,6.86-6.86S10.64,0,6.86,0z M10.81,6.64
	C10.54,6.88,10.19,7,9.75,7C9.61,7,9.35,6.99,8.97,6.97C8.8,6.96,8.6,6.96,8.4,6.96C8.13,6.96,7.72,6.97,7.16,7
	C7.48,7.36,7.73,7.61,7.9,7.74c0.18,0.14,0.48,0.31,0.92,0.53C9.25,8.5,9.56,8.73,9.75,8.98C9.89,9.17,9.96,9.4,9.96,9.69
	c0,0.32-0.11,0.58-0.32,0.8c-0.21,0.22-0.47,0.33-0.77,0.33c-0.32,0-0.6-0.13-0.85-0.39C7.76,10.16,7.59,9.7,7.49,9.03
	C7.44,8.59,7.37,8.28,7.3,8.08c-0.07-0.2-0.22-0.49-0.45-0.87C6.61,7.6,6.45,7.9,6.37,8.11C6.29,8.33,6.22,8.63,6.16,9.03
	c-0.1,0.67-0.26,1.13-0.51,1.38c-0.24,0.25-0.53,0.37-0.85,0.37c-0.3,0-0.56-0.1-0.78-0.31C3.81,10.27,3.7,10.02,3.7,9.73
	c0-0.29,0.08-0.56,0.25-0.79c0.17-0.23,0.47-0.47,0.92-0.72C5.31,7.98,5.62,7.8,5.79,7.67S6.2,7.32,6.52,7L5.34,6.96
	c-0.21,0-0.4,0-0.58,0.01C4.33,7,4.03,7.01,3.87,7.01c-0.42,0-0.76-0.12-1.03-0.35c-0.26-0.24-0.4-0.51-0.4-0.84
	c0-0.3,0.11-0.56,0.33-0.78c0.22-0.22,0.49-0.33,0.82-0.33c0.46,0,0.91,0.22,1.33,0.66s0.7,0.71,0.83,0.8
	c0.18,0.12,0.47,0.28,0.87,0.45C6.6,6.21,6.56,5.89,6.5,5.67C6.43,5.45,6.28,5.1,6.04,4.64C5.81,4.18,5.69,3.82,5.69,3.56
	c0-0.34,0.12-0.64,0.36-0.89c0.24-0.26,0.5-0.39,0.79-0.39c0.32,0,0.59,0.12,0.82,0.36C7.89,2.88,8,3.19,8,3.57
	c0,0.3-0.11,0.67-0.34,1.09C7.43,5.09,7.29,5.41,7.22,5.64c-0.06,0.22-0.11,0.56-0.15,1c0.41-0.17,0.71-0.32,0.88-0.44
	S8.4,5.82,8.74,5.46c0.46-0.49,0.91-0.74,1.33-0.74c0.32,0,0.6,0.11,0.82,0.32c0.22,0.21,0.33,0.47,0.33,0.76
	C11.22,6.11,11.09,6.39,10.81,6.64z"/>
</svg>
