<?xml version="1.0" encoding="utf-8"?>
<!-- Generator: Adobe Illustrator 24.0.2, SVG Export Plug-In . SVG Version: 6.00 Build 0)  -->
<svg version="1.1" id="Layer_1" xmlns="http://www.w3.org/2000/svg" xmlns:xlink="http://www.w3.org/1999/xlink" x="0px" y="0px"
	 viewBox="0 0 47.71 47.71" style="enable-background:new 0 0 47.71 47.71;" xml:space="preserve">
<style type="text/css">
	.st0{fill:#231F20;}
</style>
<g>
	<path class="st0" d="M17.05,20.01c0,0.4,0.31,0.68,0.94,0.85v-1.61c-0.2,0.02-0.39,0.06-0.57,0.12
		C17.17,19.46,17.05,19.68,17.05,20.01z"/>
	<path class="st0" d="M23.86,0C10.68,0,0,10.68,0,23.86c0,13.18,10.68,23.86,23.86,23.86s23.86-10.68,23.86-23.86
		C47.71,10.68,37.03,0,23.86,0z M22.16,38.92c-0.06,0-0.11,0.01-0.17,0.01c-2.7,0-7.3,0-9.99,0c-1.79,0-3.2-1.27-3.39-3.13
		c0-7.81-0.01-15.61,0-23.42c0-1.7,0.92-2.87,2.73-3.44c4.62,0,9.24,0,13.86,0c0.81,0,1.61,0,2.42,0.01
		c2.55,2.54,5.1,5.09,7.65,7.64c0,2.39,0,3.82,0,6.21c0,0.06,0,0.12,0,0.18c-1.12,0-2.22,0-3.34,0v-4.03h-6.66v-6.65H11.95v23.29
		h10.21C22.16,36.7,22.16,37.81,22.16,38.92z M23.74,26.65c-0.17,0.46-0.46,0.87-0.85,1.24c-0.39,0.37-0.9,0.67-1.52,0.91
		c-0.56,0.21-1.22,0.33-1.99,0.35v1.67h-0.27h-0.87h-0.25v-1.67c-0.78-0.02-1.44-0.14-2-0.36c-0.62-0.24-1.13-0.56-1.53-0.96
		c-0.4-0.4-0.69-0.85-0.88-1.37c-0.19-0.51-0.3-1.05-0.32-1.6h3.59c0,0.15,0.01,0.31,0.04,0.49c0.03,0.18,0.09,0.35,0.18,0.51
		c0.09,0.16,0.23,0.3,0.41,0.42c0.13,0.08,0.3,0.14,0.5,0.18v-2.41c-0.14-0.04-0.29-0.08-0.44-0.12c-0.24-0.06-0.49-0.14-0.75-0.23
		c-0.46-0.16-0.88-0.32-1.26-0.5c-0.38-0.17-0.71-0.38-0.97-0.62c-0.27-0.24-0.48-0.53-0.62-0.86c-0.15-0.33-0.22-0.74-0.22-1.22
		c0-0.68,0.14-1.27,0.41-1.77c0.27-0.5,0.63-0.91,1.06-1.23c0.43-0.32,0.92-0.55,1.45-0.71c0.45-0.13,0.9-0.2,1.34-0.22v-1.35h0.25
		h0.87h0.27v1.35c0.49,0.02,0.96,0.09,1.41,0.22c0.54,0.15,1.01,0.39,1.42,0.71c0.41,0.32,0.73,0.73,0.97,1.22
		c0.24,0.49,0.36,1.08,0.36,1.76h-3.21c-0.02-0.21-0.06-0.39-0.11-0.54c-0.05-0.15-0.12-0.26-0.22-0.35
		c-0.1-0.09-0.22-0.16-0.36-0.22c-0.08-0.03-0.17-0.06-0.27-0.09v1.88c0.96,0.22,1.74,0.46,2.33,0.72c0.64,0.29,1.14,0.6,1.48,0.94
		c0.34,0.34,0.56,0.71,0.66,1.12c0.1,0.4,0.15,0.84,0.15,1.31C24,25.73,23.92,26.19,23.74,26.65z M40.57,33.57l-6.42,6.42
		c-0.82,0.82-2.23,0.24-2.23-0.93v-3.48h-7.81V29.7h7.81v-3.48c0-1.17,1.41-1.75,2.23-0.93l6.42,6.42
		C41.08,32.23,41.08,33.06,40.57,33.57z"/>
	<path class="st0" d="M20.14,24.81c-0.19-0.12-0.45-0.24-0.76-0.35v2c0.28-0.05,0.52-0.13,0.73-0.26c0.27-0.16,0.4-0.41,0.4-0.73
		C20.51,25.18,20.39,24.96,20.14,24.81z"/>
</g>
</svg>
