<?xml version="1.0" encoding="utf-8"?>
<!-- Generator: Adobe Illustrator 24.0.2, SVG Export Plug-In . SVG Version: 6.00 Build 0)  -->
<svg version="1.1" id="Layer_1" xmlns="http://www.w3.org/2000/svg" xmlns:xlink="http://www.w3.org/1999/xlink" x="0px" y="0px"
	 viewBox="0 0 47.72 47.72" style="enable-background:new 0 0 47.72 47.72;" xml:space="preserve">
<style type="text/css">
	.st0{fill:#231F20;}
</style>
<g>
	<path class="st0" d="M26.54,27.31c0-0.43-0.18-0.76-0.54-0.98c-0.29-0.18-0.66-0.35-1.12-0.52v2.95c0.41-0.07,0.77-0.2,1.07-0.38
		C26.34,28.15,26.54,27.79,26.54,27.31z"/>
	<path class="st0" d="M22.82,18.14c-0.3,0.03-0.58,0.09-0.84,0.18c-0.36,0.13-0.54,0.45-0.54,0.94c0,0.59,0.46,1,1.38,1.25V18.14z"
		/>
	<path class="st0" d="M23.86,0C10.68,0,0,10.68,0,23.86c0,13.18,10.68,23.86,23.86,23.86s23.86-10.68,23.86-23.86
		C47.72,10.68,37.04,0,23.86,0z M7.97,29.2c-0.29,0-0.57-0.12-0.78-0.32l-4.36-4.36c-0.31-0.31-0.41-0.79-0.24-1.2
		s0.57-0.68,1.01-0.68h2.61C6.8,13.42,14.48,6.1,23.85,6.1c5.62,0,10.77,2.58,14.15,7.08c0.59,0.79,0.43,1.91-0.36,2.5
		c-0.79,0.59-1.91,0.43-2.5-0.36c-2.69-3.59-6.81-5.65-11.3-5.65c-7.4,0-13.48,5.72-14.06,12.98h2.52c0.44,0,0.84,0.27,1.01,0.68
		s0.08,0.88-0.24,1.2l-4.36,4.36C8.54,29.08,8.26,29.2,7.97,29.2z M19.87,32.2c-0.92-0.35-1.67-0.83-2.25-1.41
		c-0.59-0.59-1.02-1.26-1.3-2.02c-0.28-0.76-0.44-1.54-0.47-2.35h5.3c0,0.21,0.02,0.45,0.06,0.72c0.04,0.26,0.13,0.52,0.27,0.76
		c0.14,0.24,0.34,0.45,0.61,0.62c0.19,0.12,0.44,0.21,0.74,0.26v-3.55c-0.21-0.06-0.43-0.12-0.65-0.18c-0.36-0.09-0.72-0.2-1.1-0.33
		c-0.68-0.23-1.3-0.47-1.86-0.73s-1.04-0.56-1.44-0.92c-0.4-0.35-0.7-0.78-0.92-1.26c-0.21-0.49-0.32-1.09-0.32-1.8
		c0-1.01,0.2-1.88,0.61-2.61c0.4-0.73,0.92-1.34,1.56-1.81c0.64-0.47,1.35-0.82,2.14-1.04c0.67-0.19,1.32-0.29,1.98-0.32v-1.99h0.37
		h1.29h0.39v1.99c0.72,0.03,1.41,0.13,2.08,0.32c0.79,0.22,1.49,0.57,2.09,1.04s1.08,1.07,1.44,1.8c0.35,0.73,0.53,1.59,0.53,2.6
		h-4.73c-0.03-0.31-0.09-0.58-0.16-0.79c-0.07-0.21-0.18-0.39-0.32-0.52c-0.14-0.13-0.32-0.24-0.53-0.32
		c-0.12-0.05-0.25-0.09-0.4-0.13V21c1.42,0.32,2.56,0.68,3.43,1.06c0.95,0.42,1.68,0.88,2.18,1.39c0.5,0.5,0.83,1.05,0.98,1.65
		c0.15,0.59,0.22,1.24,0.22,1.93c0,0.68-0.13,1.35-0.38,2.03c-0.26,0.68-0.67,1.29-1.25,1.83c-0.58,0.54-1.32,0.99-2.24,1.34
		c-0.82,0.31-1.8,0.48-2.94,0.51v2.46h-0.39H23.2h-0.37v-2.46C21.68,32.7,20.7,32.52,19.87,32.2z M44.12,24.91h-2.61
		c-0.59,9.22-8.27,16.54-17.64,16.54c-5.62,0-10.77-2.58-14.15-7.08c-0.59-0.79-0.43-1.91,0.36-2.5c0.79-0.59,1.91-0.43,2.5,0.36
		c2.69,3.59,6.81,5.65,11.3,5.65c7.4,0,13.48-5.72,14.06-12.98h-2.52c-0.44,0-0.84-0.27-1.01-0.68s-0.08-0.88,0.24-1.2l4.36-4.36
		c0.21-0.21,0.49-0.32,0.78-0.32s0.57,0.12,0.78,0.32l4.36,4.36c0.31,0.31,0.41,0.79,0.24,1.2C44.96,24.64,44.56,24.91,44.12,24.91z
		"/>
</g>
</svg>
