<?xml version="1.0" encoding="utf-8"?>
<!-- Generator: Adobe Illustrator 24.0.2, SVG Export Plug-In . SVG Version: 6.00 Build 0)  -->
<svg version="1.1" id="Layer_1" xmlns="http://www.w3.org/2000/svg" xmlns:xlink="http://www.w3.org/1999/xlink" x="0px" y="0px"
	 viewBox="0 0 47.71 47.71" style="enable-background:new 0 0 47.71 47.71;" xml:space="preserve">
<style type="text/css">
	.st0{fill:#231F20;}
</style>
<g>
	<path class="st0" d="M14.82,13.01c-0.76,0-1.37,0.61-1.37,1.37c0,0.76,0.61,1.37,1.37,1.37c0.76,0,1.37-0.61,1.37-1.37
		C16.19,13.62,15.57,13.01,14.82,13.01z"/>
	<path class="st0" d="M10.95,13.01c-0.76,0-1.37,0.61-1.37,1.37c0,0.76,0.61,1.37,1.37,1.37c0.76,0,1.37-0.61,1.37-1.37
		C12.32,13.62,11.71,13.01,10.95,13.01z"/>
	<path class="st0" d="M29.87,28.16c0,0.46,0.36,0.78,1.08,0.97v-1.85c-0.23,0.02-0.45,0.07-0.65,0.14
		C30.01,27.53,29.87,27.77,29.87,28.16z"/>
	<path class="st0" d="M23.86,0C10.68,0,0,10.68,0,23.86s10.68,23.86,23.86,23.86s23.86-10.68,23.86-23.86S37.03,0,23.86,0z
		 M22.67,30.89c-3.59,0-7.16,0-10.75,0c0-0.06-0.01-0.11-0.01-0.17c0-0.79,0-1.58,0-2.37c0-0.15,0.05-0.24,0.17-0.32
		c1.06-0.77,2.24-1.27,3.53-1.5c2.51-0.46,4.81,0.08,6.9,1.52c0.12,0.08,0.16,0.16,0.16,0.3C22.66,29.18,22.67,30.02,22.67,30.89z
		 M14.59,22.17c0.02-1.45,1.26-2.61,2.78-2.59c1.43,0.02,2.61,1.25,2.6,2.71c-0.02,1.5-1.22,2.67-2.72,2.66
		C15.74,24.93,14.57,23.71,14.59,22.17z M9.71,17.34c0,0.06-0.01,0.11-0.01,0.17c0,4.84,0.01,9.68-0.01,14.52
		c0,0.93,0.72,1.72,1.72,1.71c1.54-0.02,3.09,0,4.63,0c0.06,0,6.55,0,6.63,0c0,1.1,0,2.19,0,3.29c-0.06,0-0.1,0-0.15,0
		c-1.58,0-9.57,0-11.15,0c-2.31-0.01-4.26-1.52-4.81-3.74c-0.1-0.38-0.15-0.79-0.15-1.19C6.4,26.64,6.4,21.18,6.4,15.72
		c0-2.18,1.36-4.04,3.42-4.72c0.51-0.17,1.03-0.24,1.56-0.24c6.53,0,13.06,0,19.59,0c2.37,0,4.34,1.59,4.86,3.91
		c0.07,0.31,0.1,0.63,0.11,0.95c0.01,1.63,0.01,3.27,0.01,4.9c0,0.04,0,0.07-0.01,0.13c-1.1,0-2.18,0-3.28,0c0-1.1,0-2.2,0-3.31
		C25,17.34,17.36,17.34,9.71,17.34z M37.56,35.78c-0.2,0.53-0.52,1-0.97,1.43c-0.45,0.42-1.03,0.77-1.75,1.04
		c-0.64,0.24-1.41,0.38-2.29,0.4v1.92h-0.31h-1h-0.29v-1.92c-0.89-0.02-1.66-0.16-2.3-0.41c-0.71-0.28-1.3-0.64-1.76-1.1
		c-0.46-0.46-0.79-0.98-1.01-1.57c-0.22-0.59-0.34-1.2-0.37-1.83h4.13c0,0.17,0.02,0.35,0.05,0.56c0.03,0.21,0.1,0.4,0.21,0.59
		c0.11,0.19,0.27,0.35,0.47,0.48c0.15,0.1,0.34,0.17,0.58,0.21V32.8c-0.17-0.05-0.33-0.09-0.51-0.14c-0.28-0.07-0.56-0.16-0.86-0.26
		c-0.53-0.18-1.01-0.37-1.45-0.57c-0.44-0.2-0.81-0.44-1.12-0.71c-0.31-0.28-0.55-0.6-0.71-0.98c-0.17-0.38-0.25-0.85-0.25-1.4
		c0-0.78,0.16-1.46,0.47-2.04c0.31-0.57,0.72-1.04,1.22-1.41c0.49-0.37,1.05-0.64,1.67-0.81c0.52-0.15,1.03-0.23,1.54-0.25v-1.55
		h0.29h1h0.31v1.55c0.56,0.02,1.1,0.1,1.62,0.25c0.62,0.17,1.16,0.44,1.63,0.81c0.47,0.37,0.84,0.83,1.12,1.4
		c0.28,0.57,0.41,1.24,0.41,2.03h-3.68c-0.03-0.24-0.07-0.45-0.13-0.62c-0.06-0.17-0.14-0.3-0.25-0.41
		c-0.11-0.1-0.25-0.19-0.41-0.25c-0.09-0.04-0.2-0.07-0.31-0.1v2.16c1.1,0.25,2,0.53,2.68,0.83c0.74,0.33,1.31,0.69,1.7,1.08
		c0.39,0.39,0.65,0.82,0.76,1.28c0.12,0.46,0.17,0.96,0.17,1.5C37.86,34.72,37.76,35.25,37.56,35.78z"/>
	<path class="st0" d="M33.42,33.66c-0.22-0.14-0.51-0.27-0.87-0.4v2.3c0.32-0.06,0.6-0.15,0.83-0.3c0.31-0.19,0.46-0.47,0.46-0.84
		C33.85,34.09,33.7,33.84,33.42,33.66z"/>
</g>
</svg>
