<?xml version="1.0" encoding="utf-8"?>
<!-- Generator: Adobe Illustrator 24.0.2, SVG Export Plug-In . SVG Version: 6.00 Build 0)  -->
<svg version="1.1" id="Layer_1" xmlns="http://www.w3.org/2000/svg" xmlns:xlink="http://www.w3.org/1999/xlink" x="0px" y="0px"
	 viewBox="0 0 47.71 47.71" style="enable-background:new 0 0 47.71 47.71;" xml:space="preserve">
<style type="text/css">
	.st0{fill:#231F20;}
</style>
<g>
	<path class="st0" d="M14.82,13.01c-0.76,0-1.37,0.61-1.37,1.37c0,0.76,0.61,1.37,1.37,1.37c0.76,0,1.37-0.61,1.37-1.37
		C16.19,13.62,15.57,13.01,14.82,13.01z"/>
	<circle class="st0" cx="33.7" cy="31.38" r="3.58"/>
	<path class="st0" d="M10.95,13.01c-0.76,0-1.37,0.61-1.37,1.37c0,0.76,0.61,1.37,1.37,1.37s1.37-0.61,1.37-1.37
		C12.32,13.62,11.71,13.01,10.95,13.01z"/>
	<path class="st0" d="M23.86,0C10.68,0,0,10.68,0,23.86s10.68,23.86,23.86,23.86s23.86-10.68,23.86-23.86S37.03,0,23.86,0z
		 M22.67,30.89c-3.59,0-7.16,0-10.75,0c0-0.06-0.01-0.11-0.01-0.17c0-0.79,0-1.58,0-2.37c0-0.15,0.05-0.24,0.17-0.32
		c1.06-0.77,2.24-1.27,3.53-1.5c2.51-0.46,4.81,0.08,6.9,1.52c0.12,0.08,0.16,0.16,0.16,0.3C22.66,29.18,22.67,30.02,22.67,30.89z
		 M14.59,22.17c0.02-1.45,1.26-2.61,2.78-2.59c1.43,0.02,2.61,1.25,2.6,2.71c-0.02,1.5-1.22,2.67-2.72,2.66
		C15.74,24.93,14.57,23.71,14.59,22.17z M9.71,17.34c0,0.06-0.01,0.11-0.01,0.17c0,4.84,0.01,9.68-0.01,14.52
		c0,0.93,0.72,1.72,1.72,1.71c1.54-0.02,3.09,0,4.63,0c0.06,0,6.55,0,6.63,0c0,1.1,0,2.19,0,3.29c-0.06,0-0.1,0-0.15,0
		c-1.58,0-9.57,0-11.15,0c-2.31-0.01-4.26-1.52-4.81-3.74c-0.1-0.38-0.15-0.79-0.15-1.19C6.4,26.64,6.4,21.18,6.4,15.72
		c0-2.18,1.36-4.04,3.42-4.72c0.51-0.17,1.03-0.24,1.56-0.24c6.53,0,13.06,0,19.59,0c2.37,0,4.34,1.59,4.86,3.91
		c0.07,0.31,0.1,0.63,0.11,0.95c0.01,1.63,0.01,3.27,0.01,4.9c0,0.04,0,0.07-0.01,0.13c-1.1,0-2.18,0-3.28,0c0-1.1,0-2.2,0-3.31
		C25,17.34,17.36,17.34,9.71,17.34z M40.86,37.07l-1.47,1.47c-0.99-0.79-2.09-1.09-3.01-0.71c-0.93,0.38-1.49,1.38-1.63,2.63h-2.08
		c-0.14-1.26-0.7-2.25-1.63-2.63c-0.93-0.38-2.03-0.08-3.01,0.71l-1.47-1.47c0.79-0.99,1.09-2.09,0.71-3.01
		c-0.38-0.93-1.38-1.49-2.63-1.63v-2.08c1.26-0.14,2.25-0.7,2.63-1.63c0.38-0.93,0.08-2.03-0.71-3.01l1.47-1.47
		C29,25,30.1,25.31,31.03,24.92c0.93-0.38,1.49-1.38,1.63-2.63h2.08c0.14,1.26,0.7,2.25,1.63,2.63c0.93,0.38,2.03,0.08,3.01-0.71
		l1.47,1.47c-0.79,0.99-1.09,2.09-0.71,3.01c0.38,0.93,1.38,1.49,2.63,1.63v2.08c-1.26,0.14-2.25,0.7-2.63,1.63
		C39.77,34.98,40.07,36.08,40.86,37.07z"/>
</g>
</svg>
