<?xml version="1.0" encoding="utf-8"?>
<!-- Generator: Adobe Illustrator 24.0.2, SVG Export Plug-In . SVG Version: 6.00 Build 0)  -->
<svg version="1.1" id="Layer_1" xmlns="http://www.w3.org/2000/svg" xmlns:xlink="http://www.w3.org/1999/xlink" x="0px" y="0px"
	 viewBox="0 0 47.71 47.71" style="enable-background:new 0 0 47.71 47.71;" xml:space="preserve">
<style type="text/css">
	.st0{fill:#231F20;}
</style>
<g>
	<path class="st0" d="M10.95,13.01c-0.76,0-1.37,0.61-1.37,1.37c0,0.76,0.61,1.37,1.37,1.37c0.76,0,1.37-0.61,1.37-1.37
		C12.32,13.62,11.71,13.01,10.95,13.01z"/>
	<path class="st0" d="M16.48,20.53l4.92,2.84v2.79l-1.62,0.93V24.3l-4.92-2.84l-1.35,0.78l4.64,2.68c0.16,0.1,0.27,0.27,0.27,0.46
		v5.35l4.37-2.52v-5.66l-4.9-2.83L16.48,20.53z"/>
	<path class="st0" d="M14.82,13.01c-0.76,0-1.37,0.61-1.37,1.37c0,0.76,0.61,1.37,1.37,1.37c0.76,0,1.37-0.61,1.37-1.37
		C16.19,13.62,15.57,13.01,14.82,13.01z"/>
	<path class="st0" d="M31.94,27.57c-2.05,0-3.74,1.68-3.75,3.73c-0.01,2.09,1.66,3.77,3.75,3.77c2.06,0,3.75-1.67,3.75-3.73
		C35.7,29.26,34.01,27.57,31.94,27.57z"/>
	<path class="st0" d="M23.86,0C10.68,0,0,10.68,0,23.86s10.68,23.86,23.86,23.86s23.86-10.68,23.86-23.86S37.03,0,23.86,0z
		 M23.85,28.52c0,0.19-0.1,0.37-0.27,0.46l-5.44,3.14c-0.08,0.05-0.17,0.07-0.27,0.07c-0.09,0-0.18-0.02-0.27-0.07l-5.44-3.14
		c-0.16-0.1-0.27-0.27-0.27-0.46v-6.28c0-0.19,0.1-0.37,0.27-0.46l5.44-3.14c0.16-0.1,0.37-0.1,0.53,0l5.44,3.14
		c0.16,0.1,0.27,0.27,0.27,0.46V28.52z M9.7,17.34c0,0.06-0.01,0.11-0.01,0.17c0,4.84,0.01,9.68-0.01,14.52
		c0,0.93,0.72,1.72,1.72,1.71c1.54-0.02,3.09,0,4.63,0c0.06,0,7.74,0,7.81,0c0,1.1,0,2.19,0,3.29c-0.06,0-0.1,0-0.15,0
		c-1.58,0-10.76,0-12.33,0c-2.31-0.01-4.26-1.52-4.81-3.74c-0.09-0.38-0.15-0.79-0.15-1.19C6.4,26.64,6.4,21.18,6.4,15.72
		c0-2.18,1.36-4.04,3.42-4.72c0.51-0.17,1.03-0.24,1.56-0.24c6.53,0,13.06,0,19.59,0c2.37,0,4.34,1.59,4.86,3.91
		c0.07,0.31,0.1,0.63,0.11,0.95c0.01,1.63,0.01,5.64,0.01,7.27c0,0.04,0,0.07-0.01,0.13c-1.1,0-2.18,0-3.28,0c0-1.1,0-4.57,0-5.68
		C25,17.34,17.36,17.34,9.7,17.34z M38.86,40.27c-0.55-0.56-1.11-1.12-1.67-1.68c-0.56-0.56-1.12-1.13-1.68-1.68
		c-0.3,0.15-0.58,0.31-0.87,0.44c-1.02,0.46-2.08,0.65-3.2,0.56c-2.71-0.22-4.97-1.97-5.78-4.58c-0.75-2.42-0.24-4.61,1.45-6.49
		c1.01-1.13,2.3-1.8,3.8-2.03c3.39-0.52,6.49,1.57,7.37,4.74c0.51,1.83,0.25,3.58-0.72,5.21c-0.06,0.09-0.05,0.14,0.03,0.22
		c1.06,1.06,2.12,2.12,3.18,3.18c0.03,0.03,0.07,0.06,0.11,0.08C40.2,38.92,39.54,39.59,38.86,40.27z"/>
</g>
</svg>
