<?xml version="1.0" encoding="utf-8"?>
<!-- Generator: Adobe Illustrator 24.0.2, SVG Export Plug-In . SVG Version: 6.00 Build 0)  -->
<svg version="1.1" id="Layer_1" xmlns="http://www.w3.org/2000/svg" xmlns:xlink="http://www.w3.org/1999/xlink" x="0px" y="0px"
	 viewBox="0 0 16.57 17.25" style="enable-background:new 0 0 16.57 17.25;" xml:space="preserve">
<style type="text/css">
	.st0{fill:#231F20;}
</style>
<g>
	<path class="st0" d="M16.56,8.97c-0.02-0.76-0.38-1.32-1.06-1.66c-0.07-0.03-0.09-0.07-0.09-0.15c0-0.52-0.05-1.03-0.16-1.54
		c-0.84-3.88-4.74-6.45-8.75-5.39C4.05,0.88,2.41,2.45,1.54,4.82C1.26,5.57,1.15,6.36,1.15,7.17c0,0.06,0,0.1-0.07,0.14
		C0.37,7.65,0.01,8.23,0,9.02C0,9.55,0,10.09,0,10.62c0,0.15,0,0.31,0.02,0.46c0.1,0.82,0.82,1.51,1.64,1.56
		c0.53,0.03,1.07,0.01,1.61,0.01c0.09,0,0.13,0.03,0.16,0.11C3.65,13.4,3.92,14,4.27,14.58c0.47,0.78,1.03,1.47,1.79,1.98
		c0.92,0.62,1.93,0.84,3.03,0.61c0.78-0.16,1.44-0.56,2.02-1.1c0.46-0.43,0.84-0.93,1.18-1.49c-0.46,0.09-0.9,0.18-1.34,0.27
		c-0.55,0.11-1.09,0.24-1.66,0.18c-0.44-0.04-0.86-0.14-1.27-0.33c-0.34-0.16-0.49-0.55-0.34-0.89c0.15-0.37,0.55-0.52,0.93-0.36
		c0.43,0.18,0.88,0.26,1.35,0.18c0.94-0.18,1.89-0.38,2.83-0.55c0.22-0.04,0.34-0.12,0.38-0.34c0.01-0.09,0.06-0.1,0.14-0.1
		c0.47,0,0.93,0,1.4,0c1.04-0.01,1.85-0.81,1.85-1.86C16.56,10.19,16.57,9.58,16.56,8.97z M13.67,7.13c-0.08,0-0.07-0.06-0.08-0.1
		c-0.14-0.59-0.33-1.17-0.62-1.7C12.25,4,11.2,3.08,9.73,2.72C8.44,2.39,7.17,2.47,5.96,3.03C4.9,3.51,4.14,4.31,3.6,5.32
		c-0.29,0.54-0.49,1.11-0.62,1.7c-0.01,0.03-0.02,0.07-0.03,0.1c-0.14,0-0.27,0-0.43,0c0.06-1.96,0.85-3.54,2.44-4.68
		c1.9-1.36,4.4-1.43,6.35-0.19c1.77,1.13,2.64,2.77,2.72,4.88C13.9,7.13,13.78,7.13,13.67,7.13z"/>
</g>
</svg>
