<?xml version="1.0" encoding="utf-8"?>
<!-- Generator: Adobe Illustrator 24.0.2, SVG Export Plug-In . SVG Version: 6.00 Build 0)  -->
<svg version="1.1" id="Layer_1" xmlns="http://www.w3.org/2000/svg" xmlns:xlink="http://www.w3.org/1999/xlink" x="0px" y="0px"
	 viewBox="0 0 47.71 47.71" style="enable-background:new 0 0 47.71 47.71;" xml:space="preserve">
<style type="text/css">
	.st0{fill:#231F20;}
</style>
<g>
	<circle class="st0" cx="23.86" cy="13.52" r="3.81"/>
	<path class="st0" d="M23.86,0C10.68,0,0,10.68,0,23.86s10.68,23.86,23.86,23.86s23.86-10.68,23.86-23.86S37.03,0,23.86,0z
		 M14.19,12.41c1.34-0.15,2.39-0.75,2.8-1.74c0.41-0.99,0.09-2.16-0.75-3.21l1.57-1.57c1.05,0.84,2.22,1.16,3.21,0.75
		c0.99-0.41,1.59-1.46,1.74-2.8h2.22c0.15,1.34,0.75,2.39,1.74,2.8c0.99,0.41,2.16,0.09,3.21-0.75l1.57,1.57
		c-0.84,1.05-1.16,2.22-0.75,3.21c0.41,0.99,1.46,1.59,2.8,1.74v2.22c-1.34,0.15-2.39,0.75-2.8,1.74c-0.41,0.99-0.09,2.16,0.75,3.21
		l-1.57,1.57c-1.05-0.84-2.22-1.16-3.21-0.75c-0.99,0.41-1.59,1.46-1.74,2.8h-2.22c-0.15-1.34-0.75-2.39-1.74-2.8
		c-0.99-0.41-2.16-0.09-3.21,0.75l-1.57-1.57c0.84-1.05,1.16-2.22,0.75-3.21c-0.41-0.99-1.46-1.59-2.8-1.74V12.41z M18.06,40.07
		c-1.17,0.84-2.33,1.69-3.5,2.53c-0.03,0.02-0.06,0.06-0.09,0.09c-0.08,0-0.15,0-0.23,0c-0.25-0.34-0.5-0.69-0.75-1.03
		c-2.26-3.01-4.52-6.02-6.79-9.03c-0.03-0.04-0.06-0.09-0.1-0.15c1.24-0.91,2.48-1.83,3.73-2.75c2.63,3.41,5.25,6.8,7.89,10.22
		C18.16,39.99,18.11,40.03,18.06,40.07z M39.43,29.35c-0.68,0.53-1.36,1.06-2.04,1.59c-2.69,2.09-5.38,4.18-8.07,6.27
		c-0.08,0.06-0.2,0.11-0.3,0.11c-3.26,0.01-6.53,0-9.79,0.01c-0.13,0-0.21-0.05-0.28-0.14c-1.92-2.5-3.84-5-5.77-7.5
		c-0.03-0.04-0.06-0.08-0.09-0.13c0.42-0.27,0.83-0.53,1.24-0.8c1.57-1.01,3.14-2.01,4.71-3.01c0.11-0.07,0.25-0.11,0.38-0.11
		c2.97-0.01,5.93,0,8.9-0.01c0.14,0,0.23,0.04,0.31,0.15c0.37,0.49,0.75,0.96,1.13,1.45c-1.88,1.39-3.76,2.77-5.66,4.17
		c0.07,0.01,0.11,0.02,0.15,0.02c1.88,0,3.76,0,5.64,0c0.1,0,0.21-0.05,0.28-0.11c2.22-1.69,4.44-3.38,6.66-5.07
		c0.62-0.48,1.29-0.67,2.04-0.4c0.74,0.26,1.2,0.81,1.32,1.58C40.33,28.19,40.06,28.86,39.43,29.35z"/>
</g>
</svg>
