<?xml version="1.0" encoding="utf-8"?>
<!-- Generator: Adobe Illustrator 24.0.2, SVG Export Plug-In . SVG Version: 6.00 Build 0)  -->
<svg version="1.1" id="Layer_1" xmlns="http://www.w3.org/2000/svg" xmlns:xlink="http://www.w3.org/1999/xlink" x="0px" y="0px"
	 viewBox="0 0 47.71 47.71" style="enable-background:new 0 0 47.71 47.71;" xml:space="preserve">
<style type="text/css">
	.st0{fill:#231F20;}
</style>
<g>
	<path class="st0" d="M17.99,18.64c-0.34,0.5-0.57,1.06-0.68,1.68c-0.11,0.62-0.16,1.28-0.16,1.99v4.35h4.88V21.4h-2.17
		c0.02-0.69,0.19-1.25,0.5-1.7c0.32-0.44,0.87-0.71,1.67-0.79v-2.31c-1.06,0.16-1.91,0.41-2.56,0.76
		C18.83,17.71,18.33,18.13,17.99,18.64z"/>
	<path class="st0" d="M11.52,18.64c-0.34,0.5-0.57,1.06-0.68,1.68c-0.11,0.62-0.16,1.28-0.16,1.99v4.35h4.88V21.4h-2.17
		c0.02-0.69,0.19-1.25,0.5-1.7c0.32-0.44,0.87-0.71,1.67-0.79v-2.31c-1.06,0.16-1.91,0.41-2.56,0.76
		C12.36,17.71,11.87,18.13,11.52,18.64z"/>
	<path class="st0" d="M25.81,26.65h2.17c-0.02,0.69-0.19,1.25-0.5,1.7c-0.32,0.44-0.87,0.71-1.67,0.79v2.31
		c1.06-0.16,1.91-0.41,2.54-0.76c0.64-0.34,1.13-0.77,1.47-1.27s0.57-1.06,0.69-1.68c0.11-0.62,0.17-1.28,0.17-1.99V21.4h-4.88
		V26.65z"/>
	<path class="st0" d="M23.86,0C10.68,0,0,10.68,0,23.86s10.68,23.86,23.86,23.86s23.86-10.68,23.86-23.86S37.03,0,23.86,0z
		 M34.71,35.17c-2.18,2.14-4.8,3.47-7.8,4.07c-1.49,0.29-2.99,0.37-4.49,0.22c-1.72-0.17-3.36-0.61-4.93-1.32
		c-0.07-0.03-0.16-0.04-0.24-0.02c-2.19,0.53-4.38,1.07-6.57,1.61c-0.31,0.08-0.62,0.17-0.94,0.22c-1.29,0.21-2.31-0.9-1.99-2.17
		C8.37,35.32,9,32.86,9.62,30.4c0.02-0.09,0.02-0.21-0.02-0.3c-0.64-1.48-1.06-3.02-1.2-4.62c-0.37-4.2,0.73-7.97,3.35-11.27
		c1.87-2.36,4.25-4.02,7.1-5.02c1.09-0.38,2.22-0.64,3.37-0.75c0.57-0.05,1.13-0.08,1.7-0.13c6.56,0.04,12.37,4.09,14.65,10.26
		c0.49,1.31,0.79,2.66,0.89,4.06C39.81,27.54,38.22,31.73,34.71,35.17z"/>
	<path class="st0" d="M32.28,26.65h2.17c-0.02,0.69-0.19,1.25-0.5,1.7c-0.32,0.44-0.87,0.71-1.67,0.79v2.31
		c1.06-0.16,1.91-0.41,2.54-0.76c0.64-0.34,1.13-0.77,1.47-1.27s0.57-1.06,0.69-1.68c0.11-0.62,0.17-1.28,0.17-1.99V21.4h-4.88
		V26.65z"/>
</g>
</svg>
