<?xml version="1.0" encoding="utf-8"?>
<!-- Generator: Adobe Illustrator 24.0.2, SVG Export Plug-In . SVG Version: 6.00 Build 0)  -->
<svg version="1.1" id="Layer_1" xmlns="http://www.w3.org/2000/svg" xmlns:xlink="http://www.w3.org/1999/xlink" x="0px" y="0px"
	 viewBox="0 0 47.71 47.71" style="enable-background:new 0 0 47.71 47.71;" xml:space="preserve">
<style type="text/css">
	.st0{fill:#231F20;}
</style>
<g>
	<path class="st0" d="M21.63,16.45l7.6,4.39v4.31l-2.5,1.44v-4.31l-7.6-4.39l-2.08,1.2l7.16,4.13c0.25,0.15,0.41,0.42,0.41,0.71
		v8.27l6.75-3.9v-8.74L23.8,15.2L21.63,16.45z"/>
	<path class="st0" d="M23.86,0C10.68,0,0,10.68,0,23.86s10.68,23.86,23.86,23.86s23.86-10.68,23.86-23.86S37.03,0,23.86,0z
		 M7.91,29.36c-0.29,0-0.57-0.12-0.78-0.32l-4.36-4.36c-0.31-0.31-0.41-0.79-0.24-1.2c0.17-0.41,0.57-0.68,1.01-0.68h2.61
		C6.75,13.59,14.43,6.26,23.8,6.26c5.62,0,10.77,2.58,14.15,7.08c0.59,0.79,0.43,1.91-0.36,2.5c-0.79,0.59-1.91,0.43-2.5-0.36
		c-2.69-3.59-6.81-5.65-11.3-5.65c-7.4,0-13.48,5.72-14.06,12.98h2.52c0.44,0,0.84,0.27,1.01,0.68c0.17,0.41,0.08,0.88-0.24,1.2
		l-4.36,4.36C8.48,29.24,8.2,29.36,7.91,29.36z M33.02,19.09v9.69c0,0.29-0.16,0.57-0.41,0.71l-8.39,4.85
		c-0.13,0.07-0.27,0.11-0.41,0.11c-0.14,0-0.28-0.04-0.41-0.11L15,29.5c-0.25-0.15-0.41-0.42-0.41-0.71v-9.69
		c0-0.29,0.16-0.57,0.41-0.71l8.39-4.85c0.25-0.15,0.57-0.15,0.82,0l8.39,4.85C32.86,18.53,33.02,18.8,33.02,19.09z M44.05,25.07
		h-2.61c-0.59,9.22-8.27,16.54-17.64,16.54c-5.62,0-10.77-2.58-14.15-7.08c-0.59-0.79-0.43-1.91,0.36-2.5
		c0.79-0.59,1.91-0.43,2.5,0.36c2.69,3.59,6.81,5.65,11.3,5.65c7.4,0,13.48-5.72,14.06-12.98h-2.52c-0.44,0-0.84-0.27-1.01-0.68
		c-0.17-0.41-0.08-0.88,0.24-1.2l4.36-4.36c0.21-0.21,0.49-0.32,0.78-0.32c0.29,0,0.57,0.12,0.78,0.32l4.36,4.36
		c0.31,0.31,0.41,0.79,0.24,1.2C44.9,24.81,44.5,25.07,44.05,25.07z"/>
</g>
</svg>
