<?xml version="1.0" encoding="utf-8"?>
<!-- Generator: Adobe Illustrator 24.0.2, SVG Export Plug-In . SVG Version: 6.00 Build 0)  -->
<svg version="1.1" id="Layer_1" xmlns="http://www.w3.org/2000/svg" xmlns:xlink="http://www.w3.org/1999/xlink" x="0px" y="0px"
	 viewBox="0 0 62.34 62.34" style="enable-background:new 0 0 62.34 62.34;" xml:space="preserve">
<style type="text/css">
	.st0{fill:#231F20;}
</style>
<g>
	<circle class="st0" cx="31.27" cy="31.13" r="23.86"/>
</g>
<path class="st0" d="M31.17,62.34C13.98,62.34,0,48.35,0,31.17c0-1.37,1.11-2.48,2.48-2.48s2.48,1.11,2.48,2.48
	c0,14.45,11.76,26.21,26.21,26.21c1.37,0,2.48,1.11,2.48,2.48S32.54,62.34,31.17,62.34z"/>
<path class="st0" d="M59.86,33.65c-1.37,0-2.48-1.11-2.48-2.48c0-14.45-11.76-26.21-26.21-26.21c-1.37,0-2.48-1.11-2.48-2.48
	S29.8,0,31.17,0c17.19,0,31.17,13.98,31.17,31.17C62.34,32.54,61.23,33.65,59.86,33.65z"/>
<path class="st0" d="M54.19,46.88c-3.79,0-6.86,3.07-6.86,6.86s3.07,6.86,6.86,6.86s6.86-3.07,6.86-6.86S57.98,46.88,54.19,46.88z
	 M58.32,54.6h-3.24v3.24h-1.74V54.6h-3.24v-1.74h3.24v-3.24h1.74v3.24h3.24V54.6z"/>
</svg>
