<?xml version="1.0" encoding="utf-8"?>
<!-- Generator: Adobe Illustrator 24.0.2, SVG Export Plug-In . SVG Version: 6.00 Build 0)  -->
<svg version="1.1" id="Layer_1" xmlns="http://www.w3.org/2000/svg" xmlns:xlink="http://www.w3.org/1999/xlink" x="0px" y="0px"
	 viewBox="0 0 47.71 47.71" style="enable-background:new 0 0 47.71 47.71;" xml:space="preserve">
<style type="text/css">
	.st0{fill:#231F20;}
</style>
<g>
	<path class="st0" d="M18.48,27.63c0-0.25-0.11-0.44-0.32-0.57c-0.17-0.1-0.39-0.2-0.66-0.3v1.73c0.24-0.04,0.45-0.12,0.63-0.22
		C18.37,28.12,18.48,27.91,18.48,27.63z"/>
	<path class="st0" d="M14.82,13.01c-0.76,0-1.37,0.61-1.37,1.37c0,0.76,0.61,1.37,1.37,1.37c0.76,0,1.37-0.61,1.37-1.37
		C16.19,13.62,15.57,13.01,14.82,13.01z"/>
	<path class="st0" d="M16.31,22.26c-0.18,0.02-0.34,0.05-0.49,0.11c-0.21,0.08-0.32,0.26-0.32,0.55c0,0.34,0.27,0.59,0.81,0.73
		V22.26z"/>
	<path class="st0" d="M10.95,13.01c-0.76,0-1.37,0.61-1.37,1.37c0,0.76,0.61,1.37,1.37,1.37s1.37-0.61,1.37-1.37
		C12.32,13.62,11.71,13.01,10.95,13.01z"/>
	<circle class="st0" cx="33.7" cy="31.38" r="3.58"/>
	<path class="st0" d="M23.86,0C10.68,0,0,10.68,0,23.86s10.68,23.86,23.86,23.86s23.86-10.68,23.86-23.86S37.03,0,23.86,0z
		 M14.57,30.49c-0.54-0.21-0.98-0.48-1.32-0.83c-0.34-0.34-0.6-0.74-0.76-1.18c-0.16-0.44-0.26-0.9-0.28-1.38h3.1
		c0,0.13,0.01,0.27,0.04,0.42c0.02,0.15,0.08,0.3,0.16,0.44c0.08,0.14,0.2,0.26,0.36,0.36c0.11,0.07,0.26,0.12,0.43,0.15v-2.08
		c-0.12-0.04-0.25-0.07-0.38-0.1c-0.21-0.05-0.42-0.12-0.65-0.2c-0.4-0.14-0.76-0.28-1.09-0.43c-0.33-0.15-0.61-0.33-0.84-0.54
		c-0.23-0.21-0.41-0.45-0.54-0.74c-0.13-0.29-0.19-0.64-0.19-1.05c0-0.59,0.12-1.1,0.36-1.53c0.24-0.43,0.54-0.78,0.91-1.06
		c0.37-0.28,0.79-0.48,1.25-0.61c0.39-0.11,0.78-0.17,1.16-0.19V18.8h0.22h0.75h0.23v1.17c0.42,0.02,0.83,0.08,1.22,0.19
		c0.46,0.13,0.87,0.33,1.23,0.61c0.35,0.28,0.63,0.63,0.84,1.05c0.21,0.43,0.31,0.93,0.31,1.52h-2.77
		c-0.02-0.18-0.05-0.34-0.09-0.46c-0.04-0.13-0.11-0.23-0.19-0.3c-0.08-0.08-0.19-0.14-0.31-0.19c-0.07-0.03-0.15-0.05-0.23-0.08
		v1.62c0.83,0.19,1.5,0.4,2.01,0.62c0.56,0.25,0.98,0.52,1.28,0.81c0.29,0.3,0.49,0.62,0.57,0.96c0.09,0.35,0.13,0.73,0.13,1.13
		c0,0.4-0.08,0.79-0.22,1.19c-0.15,0.4-0.39,0.75-0.73,1.07c-0.34,0.32-0.78,0.58-1.31,0.78c-0.48,0.18-1.06,0.28-1.72,0.3v1.44
		h-0.23h-0.75h-0.22V30.8C15.64,30.78,15.06,30.68,14.57,30.49z M9.71,17.34c0,0.06-0.01,0.11-0.01,0.17
		c0,4.84,0.01,9.68-0.01,14.52c0,0.93,0.72,1.72,1.72,1.71c1.54-0.02,3.09,0,4.63,0c0.06,0,6.55,0,6.63,0c0,1.1,0,2.19,0,3.29
		c-0.06,0-0.1,0-0.15,0c-1.58,0-9.57,0-11.15,0c-2.31-0.01-4.26-1.52-4.81-3.74c-0.1-0.38-0.15-0.79-0.15-1.19
		C6.4,26.64,6.4,21.18,6.4,15.72c0-2.18,1.36-4.04,3.42-4.72c0.51-0.17,1.03-0.24,1.56-0.24c6.53,0,13.06,0,19.59,0
		c2.37,0,4.34,1.59,4.86,3.91c0.07,0.31,0.1,0.63,0.11,0.95c0.01,1.63,0.01,3.27,0.01,4.9c0,0.04,0,0.07-0.01,0.13
		c-1.1,0-2.18,0-3.28,0c0-1.1,0-2.2,0-3.31C25,17.34,17.36,17.34,9.71,17.34z M40.86,37.07l-1.47,1.47
		c-0.99-0.79-2.09-1.09-3.01-0.71c-0.93,0.38-1.49,1.38-1.63,2.63h-2.08c-0.14-1.26-0.7-2.25-1.63-2.63
		c-0.93-0.38-2.03-0.08-3.01,0.71l-1.47-1.47c0.79-0.99,1.09-2.09,0.71-3.01c-0.38-0.93-1.38-1.49-2.63-1.63v-2.08
		c1.26-0.14,2.25-0.7,2.63-1.63c0.38-0.93,0.08-2.03-0.71-3.01l1.47-1.47C29,25,30.1,25.31,31.03,24.92
		c0.93-0.38,1.49-1.38,1.63-2.63h2.08c0.14,1.26,0.7,2.25,1.63,2.63c0.93,0.38,2.03,0.08,3.01-0.71l1.47,1.47
		c-0.79,0.99-1.09,2.09-0.71,3.01c0.38,0.93,1.38,1.49,2.63,1.63v2.08c-1.26,0.14-2.25,0.7-2.63,1.63
		C39.77,34.98,40.07,36.08,40.86,37.07z"/>
</g>
</svg>
