<?xml version="1.0" encoding="utf-8"?>
<!-- Generator: Adobe Illustrator 24.0.2, SVG Export Plug-In . SVG Version: 6.00 Build 0)  -->
<svg version="1.1" id="Layer_1" xmlns="http://www.w3.org/2000/svg" xmlns:xlink="http://www.w3.org/1999/xlink" x="0px" y="0px"
	 viewBox="0 0 47.71 47.71" style="enable-background:new 0 0 47.71 47.71;" xml:space="preserve">
<style type="text/css">
	.st0{fill:#231F20;}
</style>
<g>
	<circle class="st0" cx="33.7" cy="31.38" r="3.58"/>
	<path class="st0" d="M10.95,13.01c-0.76,0-1.37,0.61-1.37,1.37s0.61,1.37,1.37,1.37s1.37-0.61,1.37-1.37S11.71,13.01,10.95,13.01z"
		/>
	<path class="st0" d="M14.82,13.01c-0.76,0-1.37,0.61-1.37,1.37s0.61,1.37,1.37,1.37c0.76,0,1.37-0.61,1.37-1.37
		S15.57,13.01,14.82,13.01z"/>
	<path class="st0" d="M23.86,0C10.68,0,0,10.68,0,23.86c0,13.18,10.68,23.86,23.86,23.86s23.86-10.68,23.86-23.86
		C47.71,10.68,37.03,0,23.86,0z M22.75,29.14h-8.32v-1.49h8.32V29.14z M21.24,30.63v1.49h-6.81v-1.49H21.24z M22.75,26.16h-8.32
		v-1.49h8.32V26.16z M22.75,23.18h-8.32v-1.49h8.32V23.18z M22.75,20.2h-8.32v-1.49h8.32V20.2z M9.71,17.34
		c0,0.06-0.01,0.11-0.01,0.17c0,4.84,0.01,9.68-0.01,14.52c0,0.93,0.72,1.72,1.72,1.71c1.54-0.02,3.09,0,4.63,0
		c0.06,0,6.55,0,6.63,0c0,1.1,0,2.19,0,3.29c-0.06,0-0.1,0-0.15,0c-1.58,0-9.57,0-11.15,0c-2.31-0.01-4.26-1.52-4.81-3.74
		c-0.1-0.38-0.15-0.79-0.15-1.19C6.4,26.64,6.4,21.18,6.4,15.72c0-2.18,1.36-4.04,3.42-4.72c0.51-0.17,1.03-0.24,1.56-0.24
		c6.53,0,13.06,0,19.59,0c2.37,0,4.34,1.59,4.86,3.91c0.07,0.31,0.1,0.63,0.11,0.95c0.01,1.63,0.01,3.27,0.01,4.9
		c0,0.04,0,0.07-0.01,0.13c-1.1,0-2.18,0-3.28,0c0-1.1,0-2.2,0-3.31C25,17.34,17.36,17.34,9.71,17.34z M11.79,29.14v-1.49h1.49v1.49
		H11.79z M13.28,30.63v1.49h-1.49v-1.49H13.28z M11.79,26.16v-1.49h1.49v1.49H11.79z M11.79,23.18v-1.49h1.49v1.49H11.79z
		 M11.79,20.2v-1.49h1.49v1.49H11.79z M40.86,37.07l-1.47,1.47c-0.99-0.79-2.09-1.09-3.01-0.71c-0.93,0.38-1.49,1.38-1.63,2.63
		h-2.08c-0.14-1.26-0.7-2.25-1.63-2.63c-0.93-0.38-2.03-0.08-3.01,0.71l-1.47-1.47c0.79-0.99,1.09-2.09,0.71-3.01
		c-0.38-0.93-1.38-1.49-2.63-1.63v-2.08c1.26-0.14,2.25-0.7,2.63-1.63c0.38-0.93,0.08-2.03-0.71-3.01l1.47-1.47
		C29,25,30.1,25.31,31.03,24.92c0.93-0.38,1.49-1.38,1.63-2.63h2.08c0.14,1.26,0.7,2.25,1.63,2.63c0.93,0.38,2.03,0.08,3.01-0.71
		l1.47,1.47c-0.79,0.99-1.09,2.09-0.71,3.01c0.38,0.93,1.38,1.49,2.63,1.63v2.08c-1.26,0.14-2.25,0.7-2.63,1.63
		C39.77,34.98,40.07,36.08,40.86,37.07z"/>
</g>
</svg>
