<?xml version="1.0" encoding="utf-8"?>
<!-- Generator: Adobe Illustrator 24.0.2, SVG Export Plug-In . SVG Version: 6.00 Build 0)  -->
<svg version="1.1" id="Layer_1" xmlns="http://www.w3.org/2000/svg" xmlns:xlink="http://www.w3.org/1999/xlink" x="0px" y="0px"
	 viewBox="0 0 79.49 24.45" style="enable-background:new 0 0 79.49 24.45;" xml:space="preserve">
<style type="text/css">
	.st0{fill:#259155;}
	.st1{fill:#695C50;}
	.st2{fill:#F37D2C;}
	.st3{fill:#3F5CA9;}
</style>
<g>
	<path class="st0" d="M24.29,14.72c-1.28-1.28-3-1.99-4.83-1.99c-1.83,0-3.54,0.71-4.83,1.99L8.65,20.7H3.53l8.58-8.58
		c0.19-0.19,0.3-0.46,0.3-0.73c0-0.27-0.11-0.54-0.3-0.73L3.53,2.07h5.12l5.98,5.98c1.28,1.28,3,1.99,4.83,1.99
		c1.83,0,3.54-0.71,4.83-1.99l6.28-6.28c0.3-0.3,0.38-0.74,0.22-1.13C30.63,0.25,30.26,0,29.84,0h-8.25c-0.27,0-0.54,0.11-0.73,0.3
		L16.07,5.1l0.76,0.76c0.24,0.24,0.51,0.44,0.8,0.61l4.39-4.39h5.32l-4.52,4.52c-0.89,0.89-2.09,1.39-3.36,1.39
		c-1.28,0-2.47-0.49-3.36-1.39L9.81,0.3C9.62,0.11,9.35,0,9.08,0H1.03c-0.42,0-0.8,0.25-0.96,0.64C-0.08,1.03,0.01,1.47,0.3,1.77
		l9.62,9.62L0.3,21c-0.3,0.3-0.38,0.74-0.22,1.13c0.16,0.39,0.54,0.64,0.96,0.64h8.05c0.27,0,0.54-0.11,0.73-0.3l6.28-6.28
		c0.89-0.89,2.09-1.39,3.36-1.39c1.28,0,2.47,0.49,3.36,1.39l4.52,4.52h-5.32l-4.39-4.39c-0.29,0.16-0.56,0.36-0.8,0.61l-0.76,0.76
		l4.79,4.79c0.19,0.19,0.46,0.3,0.73,0.3h8.25c0.42,0,0.8-0.25,0.96-0.64c0.16-0.39,0.07-0.83-0.22-1.13L24.29,14.72z"/>
	<g>
		<path class="st1" d="M36.64,4l1.24,4.35h0.04L39.16,4h4.37l-3.25,7.39l3.51,7.6h-4.37l-1.49-4.52h-0.04L36.39,19h-4.31l3.49-7.6
			L32.28,4H36.64z"/>
		<path class="st1" d="M43.99,7.64V4h3.78v3.63h1.49v2.54h-1.49v5.42c0,0.32,0.07,0.55,0.22,0.68c0.15,0.13,0.37,0.2,0.68,0.2h0.59
			V19c-0.35,0-0.7,0.01-1.05,0.03c-0.35,0.02-0.69,0.03-1.01,0.03c-0.57,0-1.06-0.02-1.47-0.07c-0.41-0.05-0.74-0.17-1-0.37
			c-0.26-0.2-0.45-0.49-0.57-0.87c-0.12-0.39-0.18-0.89-0.18-1.52v-6.05h-1.26V7.64H43.99z"/>
		<path class="st1" d="M55.44,18.39c-0.03-0.21-0.06-0.43-0.08-0.67h-0.04c-0.21,0.5-0.54,0.88-1,1.13
			c-0.46,0.25-0.98,0.38-1.56,0.38c-0.57,0-1.06-0.07-1.46-0.22c-0.4-0.15-0.72-0.37-0.98-0.66c-0.25-0.29-0.43-0.64-0.55-1.05
			c-0.11-0.41-0.17-0.85-0.17-1.34c0-0.53,0.05-0.99,0.16-1.39c0.11-0.39,0.28-0.73,0.51-1.02c0.24-0.29,0.56-0.53,0.97-0.73
			c0.41-0.2,0.91-0.37,1.51-0.51l1.49-0.36c0.41-0.1,0.69-0.24,0.86-0.43c0.17-0.19,0.25-0.46,0.25-0.81c0-0.7-0.32-1.05-0.97-1.05
			c-0.36,0-0.63,0.1-0.8,0.3c-0.17,0.2-0.26,0.61-0.27,1.21h-3.28c0-0.83,0.15-1.49,0.44-1.98c0.29-0.5,0.66-0.88,1.09-1.15
			s0.9-0.45,1.41-0.55c0.5-0.09,0.97-0.14,1.41-0.14c0.66,0,1.26,0.05,1.82,0.16c0.55,0.1,1.03,0.29,1.43,0.57
			c0.4,0.27,0.71,0.64,0.92,1.11c0.22,0.47,0.33,1.07,0.33,1.82v5.54c0,0.53,0.02,1,0.06,1.41c0.04,0.41,0.14,0.76,0.29,1.05h-3.65
			C55.52,18.8,55.47,18.6,55.44,18.39z M55.08,16.29c0.18-0.31,0.27-0.78,0.27-1.41v-1.37h-0.04c-0.11,0.15-0.28,0.25-0.51,0.28
			c-0.23,0.04-0.49,0.12-0.77,0.24c-0.29,0.14-0.5,0.33-0.61,0.56c-0.11,0.23-0.17,0.54-0.17,0.91c0,0.38,0.08,0.68,0.25,0.9
			c0.17,0.22,0.39,0.34,0.67,0.34C54.6,16.75,54.9,16.6,55.08,16.29z"/>
		<path class="st1" d="M63.38,7.64v1.39h0.04c0.49-1.12,1.41-1.68,2.75-1.68c0.42,0,0.81,0.05,1.17,0.14
			c0.36,0.09,0.67,0.26,0.93,0.49c0.27,0.24,0.48,0.55,0.63,0.94c0.15,0.39,0.23,0.9,0.23,1.51V19h-3.78v-7.5
			c0-0.48-0.07-0.82-0.21-1.03c-0.14-0.21-0.38-0.31-0.71-0.31s-0.57,0.1-0.71,0.31c-0.14,0.21-0.21,0.55-0.21,1.03V19h-3.78V7.64
			H63.38z"/>
		<path class="st1" d="M75.4,18.39c-0.03-0.21-0.06-0.43-0.08-0.67h-0.04c-0.21,0.5-0.54,0.88-1,1.13
			c-0.46,0.25-0.98,0.38-1.56,0.38c-0.57,0-1.06-0.07-1.46-0.22c-0.4-0.15-0.72-0.37-0.98-0.66c-0.25-0.29-0.43-0.64-0.55-1.05
			c-0.11-0.41-0.17-0.85-0.17-1.34c0-0.53,0.05-0.99,0.16-1.39c0.11-0.39,0.28-0.73,0.51-1.02c0.24-0.29,0.56-0.53,0.97-0.73
			c0.41-0.2,0.91-0.37,1.51-0.51l1.49-0.36c0.41-0.1,0.69-0.24,0.86-0.43c0.17-0.19,0.25-0.46,0.25-0.81c0-0.7-0.32-1.05-0.97-1.05
			c-0.36,0-0.63,0.1-0.8,0.3c-0.17,0.2-0.26,0.61-0.27,1.21H70c0-0.83,0.15-1.49,0.44-1.98c0.29-0.5,0.66-0.88,1.09-1.15
			s0.9-0.45,1.41-0.55c0.5-0.09,0.97-0.14,1.41-0.14c0.66,0,1.26,0.05,1.82,0.16c0.55,0.1,1.03,0.29,1.43,0.57
			c0.4,0.27,0.71,0.64,0.92,1.11c0.22,0.47,0.33,1.07,0.33,1.82v5.54c0,0.53,0.02,1,0.06,1.41c0.04,0.41,0.14,0.76,0.29,1.05h-3.65
			C75.47,18.8,75.42,18.6,75.4,18.39z M75.04,16.29c0.18-0.31,0.27-0.78,0.27-1.41v-1.37h-0.04c-0.11,0.15-0.28,0.25-0.51,0.28
			c-0.23,0.04-0.49,0.12-0.77,0.24c-0.29,0.14-0.5,0.33-0.61,0.56c-0.11,0.23-0.17,0.54-0.17,0.91c0,0.38,0.08,0.68,0.25,0.9
			c0.17,0.22,0.39,0.34,0.67,0.34C74.56,16.75,74.86,16.6,75.04,16.29z"/>
	</g>
	<g>
		<g>
			<path class="st2" d="M74.81,21.4v1.46c0,0.8,0.58,1.52,1.27,1.52c0.18,0,0.36-0.04,0.52-0.12c-0.41-0.21-0.82-0.52-0.82-1.4
				v-1.44L74.81,21.4z"/>
			<circle class="st2" cx="75.31" cy="20.7" r="0.51"/>
			<path class="st3" d="M76.24,20.3l-0.03,2.69c0,0.37,0.06,0.69,0.21,0.9c0.27,0.38,0.76,0.56,1.11,0.56c0.31,0,0.52-0.04,0.79-0.2
				c0.45-0.27,0.71-0.78,0.71-1.13c0-0.74-0.46-1.18-0.77-1.3c-0.26-0.11-0.64-0.12-0.8-0.11v0.82c0.07-0.02,0.12-0.04,0.22-0.04
				c0.24,0,0.61,0.19,0.61,0.61c0,0.45-0.37,0.65-0.58,0.65c-0.42,0-0.65-0.18-0.63-0.66c0.02-0.59-0.01-2.5-0.02-2.78L76.24,20.3z"
				/>
		</g>
		<g>
			<path class="st1" d="M60.07,20.86h0.86c0.14,0,0.25,0.02,0.33,0.06c0.08,0.04,0.14,0.09,0.18,0.15c0.04,0.06,0.06,0.13,0.06,0.2
				c0,0.07,0,0.14-0.01,0.2c-0.01,0.06-0.03,0.13-0.06,0.2c-0.03,0.07-0.07,0.14-0.13,0.2c-0.06,0.06-0.13,0.11-0.23,0.15
				c-0.09,0.04-0.21,0.06-0.35,0.06H60.2l-0.13,0.75h-0.34L60.07,20.86z M60.25,21.79h0.5c0.04,0,0.08-0.01,0.12-0.02
				c0.04-0.01,0.08-0.03,0.12-0.05c0.04-0.02,0.07-0.06,0.1-0.1c0.03-0.04,0.05-0.09,0.06-0.15c0.01-0.06,0.01-0.12,0-0.16
				c-0.01-0.04-0.03-0.08-0.06-0.1c-0.03-0.02-0.06-0.04-0.1-0.05c-0.04-0.01-0.08-0.01-0.13-0.01h-0.51L60.25,21.79z"/>
			<path class="st1" d="M62.01,22.85c-0.11,0-0.21-0.02-0.29-0.06c-0.08-0.04-0.15-0.09-0.2-0.15c-0.05-0.07-0.08-0.14-0.1-0.24
				c-0.02-0.09-0.01-0.19,0.01-0.3c0.02-0.11,0.05-0.21,0.1-0.3c0.05-0.09,0.11-0.17,0.18-0.24c0.07-0.07,0.16-0.12,0.25-0.15
				c0.1-0.04,0.2-0.06,0.31-0.06c0.11,0,0.21,0.02,0.29,0.06c0.08,0.04,0.15,0.09,0.2,0.15c0.05,0.07,0.08,0.14,0.1,0.24
				c0.02,0.09,0.01,0.19,0,0.3c-0.02,0.11-0.05,0.21-0.1,0.3c-0.05,0.09-0.11,0.17-0.18,0.24c-0.07,0.07-0.16,0.12-0.25,0.15
				C62.23,22.83,62.12,22.85,62.01,22.85z M62.05,22.61c0.07,0,0.13-0.01,0.19-0.04c0.06-0.03,0.1-0.07,0.15-0.12
				c0.04-0.05,0.07-0.1,0.1-0.16c0.03-0.06,0.04-0.12,0.06-0.18c0.01-0.06,0.01-0.12,0.01-0.18c0-0.06-0.02-0.11-0.04-0.16
				c-0.02-0.05-0.06-0.08-0.11-0.11c-0.05-0.03-0.1-0.04-0.17-0.04s-0.13,0.01-0.19,0.04c-0.06,0.03-0.1,0.07-0.15,0.11
				c-0.04,0.05-0.07,0.1-0.1,0.16c-0.03,0.06-0.04,0.12-0.06,0.18c-0.01,0.06-0.01,0.12-0.01,0.18c0.01,0.06,0.02,0.11,0.04,0.16
				c0.02,0.05,0.06,0.09,0.11,0.12C61.93,22.59,61.98,22.61,62.05,22.61z"/>
			<path class="st1" d="M62.97,21.4h0.33l0.09,1.06h0.01l0.45-1.06h0.31l0.07,1.06h0.01l0.47-1.06h0.32l-0.69,1.41h-0.32l-0.08-1.05
				h-0.01l-0.45,1.05h-0.33L62.97,21.4z"/>
			<path class="st1" d="M65.2,22.19c-0.01,0.05-0.01,0.11,0,0.16c0.01,0.05,0.02,0.1,0.05,0.13c0.02,0.04,0.06,0.07,0.1,0.09
				c0.04,0.02,0.1,0.03,0.16,0.03c0.09,0,0.17-0.02,0.23-0.06c0.06-0.04,0.11-0.1,0.16-0.18h0.3c-0.03,0.08-0.07,0.15-0.12,0.21
				s-0.11,0.11-0.17,0.15s-0.13,0.07-0.21,0.09c-0.07,0.02-0.15,0.03-0.23,0.03c-0.11,0-0.21-0.02-0.29-0.05
				c-0.08-0.04-0.14-0.09-0.19-0.15s-0.08-0.14-0.09-0.24c-0.01-0.09-0.01-0.19,0.01-0.3c0.02-0.1,0.05-0.2,0.1-0.29
				c0.05-0.09,0.11-0.17,0.18-0.24c0.07-0.07,0.15-0.12,0.24-0.16c0.09-0.04,0.19-0.06,0.3-0.06c0.11,0,0.21,0.02,0.29,0.07
				c0.08,0.05,0.14,0.11,0.19,0.18c0.04,0.08,0.07,0.16,0.08,0.26c0.01,0.1,0,0.2-0.03,0.31H65.2z M65.96,21.98
				c0.01-0.05,0-0.1-0.01-0.14c-0.01-0.05-0.03-0.09-0.05-0.12c-0.02-0.03-0.06-0.06-0.09-0.08c-0.04-0.02-0.09-0.03-0.14-0.03
				c-0.05,0-0.11,0.01-0.15,0.03c-0.05,0.02-0.09,0.05-0.13,0.08c-0.04,0.03-0.07,0.07-0.1,0.12c-0.03,0.05-0.05,0.09-0.06,0.15
				H65.96z"/>
			<path class="st1" d="M66.53,21.4h0.29l-0.05,0.27h0.01c0.02-0.04,0.04-0.08,0.07-0.11c0.03-0.04,0.07-0.07,0.11-0.1
				c0.04-0.03,0.09-0.05,0.14-0.07c0.05-0.02,0.1-0.03,0.14-0.03c0.04,0,0.06,0,0.07,0c0.01,0,0.03,0,0.04,0.01l-0.05,0.3
				c-0.02,0-0.04-0.01-0.07-0.01c-0.02,0-0.04,0-0.07,0c-0.05,0-0.1,0.01-0.15,0.03c-0.05,0.02-0.1,0.05-0.14,0.09
				c-0.04,0.04-0.08,0.09-0.11,0.15c-0.03,0.06-0.05,0.13-0.07,0.21l-0.12,0.67h-0.31L66.53,21.4z"/>
			<path class="st1" d="M67.52,22.19c-0.01,0.05-0.01,0.11,0,0.16c0.01,0.05,0.02,0.1,0.05,0.13c0.02,0.04,0.06,0.07,0.1,0.09
				c0.04,0.02,0.1,0.03,0.16,0.03c0.09,0,0.17-0.02,0.23-0.06c0.06-0.04,0.11-0.1,0.16-0.18h0.3c-0.03,0.08-0.07,0.15-0.12,0.21
				s-0.11,0.11-0.17,0.15s-0.13,0.07-0.21,0.09c-0.07,0.02-0.15,0.03-0.23,0.03c-0.11,0-0.21-0.02-0.29-0.05
				c-0.08-0.04-0.14-0.09-0.19-0.15c-0.05-0.07-0.08-0.14-0.09-0.24c-0.01-0.09-0.01-0.19,0.01-0.3c0.02-0.1,0.05-0.2,0.1-0.29
				c0.05-0.09,0.11-0.17,0.18-0.24c0.07-0.07,0.15-0.12,0.24-0.16c0.09-0.04,0.19-0.06,0.3-0.06c0.11,0,0.21,0.02,0.29,0.07
				c0.08,0.05,0.14,0.11,0.19,0.18c0.04,0.08,0.07,0.16,0.08,0.26c0.01,0.1,0,0.2-0.03,0.31H67.52z M68.29,21.98
				c0.01-0.05,0-0.1-0.01-0.14c-0.01-0.05-0.03-0.09-0.05-0.12c-0.02-0.03-0.06-0.06-0.09-0.08c-0.04-0.02-0.09-0.03-0.14-0.03
				c-0.05,0-0.11,0.01-0.15,0.03c-0.05,0.02-0.09,0.05-0.13,0.08c-0.04,0.03-0.07,0.07-0.1,0.12c-0.03,0.05-0.05,0.09-0.06,0.15
				H68.29z"/>
			<path class="st1" d="M70,22.81h-0.3l0.03-0.19h-0.01c-0.06,0.08-0.13,0.14-0.21,0.18c-0.09,0.04-0.17,0.05-0.26,0.05
				c-0.11,0-0.2-0.02-0.28-0.06c-0.08-0.04-0.14-0.09-0.18-0.16c-0.04-0.07-0.07-0.15-0.08-0.24c-0.01-0.09-0.01-0.19,0.01-0.3
				c0.02-0.13,0.06-0.24,0.11-0.33c0.05-0.09,0.11-0.17,0.18-0.23c0.07-0.06,0.14-0.1,0.22-0.13c0.08-0.03,0.16-0.04,0.23-0.04
				c0.04,0,0.09,0,0.13,0.01c0.04,0.01,0.09,0.02,0.12,0.04c0.04,0.02,0.07,0.04,0.1,0.07c0.03,0.03,0.05,0.06,0.07,0.1h0.01
				l0.13-0.72h0.31L70,22.81z M69.03,22.12c-0.01,0.06-0.01,0.12-0.01,0.18c0.01,0.06,0.02,0.11,0.04,0.16
				c0.02,0.05,0.06,0.08,0.1,0.11c0.04,0.03,0.1,0.04,0.17,0.04c0.07,0,0.13-0.01,0.19-0.04c0.06-0.03,0.1-0.07,0.14-0.12
				c0.04-0.05,0.07-0.1,0.1-0.16c0.03-0.06,0.04-0.12,0.06-0.18c0.03-0.16,0.01-0.28-0.04-0.37c-0.05-0.09-0.14-0.13-0.26-0.13
				c-0.07,0-0.14,0.02-0.19,0.05c-0.06,0.03-0.1,0.07-0.14,0.12c-0.04,0.05-0.07,0.1-0.1,0.16C69.06,22,69.04,22.06,69.03,22.12z"/>
			<path class="st1" d="M71.28,20.86h0.31l-0.13,0.72h0.01c0.03-0.03,0.06-0.07,0.1-0.09c0.04-0.03,0.07-0.05,0.11-0.07
				s0.08-0.03,0.13-0.04c0.04-0.01,0.08-0.02,0.12-0.02c0.11,0,0.2,0.02,0.28,0.06c0.08,0.04,0.14,0.09,0.18,0.16
				c0.04,0.07,0.07,0.15,0.08,0.24c0.01,0.09,0.01,0.19-0.01,0.29c-0.02,0.09-0.05,0.19-0.09,0.28c-0.04,0.09-0.09,0.17-0.15,0.24
				s-0.14,0.12-0.22,0.16c-0.08,0.04-0.18,0.06-0.28,0.06c-0.05,0-0.09,0-0.14-0.01c-0.05-0.01-0.09-0.02-0.13-0.04
				c-0.04-0.02-0.08-0.04-0.11-0.07c-0.03-0.03-0.05-0.07-0.07-0.11h-0.01l-0.03,0.19h-0.3L71.28,20.86z M72.15,22.11
				c0.01-0.06,0.01-0.13,0.01-0.19c-0.01-0.06-0.02-0.11-0.05-0.16c-0.02-0.05-0.06-0.08-0.1-0.11c-0.04-0.03-0.1-0.04-0.16-0.04
				c-0.13,0-0.24,0.05-0.32,0.14c-0.08,0.09-0.14,0.21-0.16,0.36c-0.01,0.07-0.02,0.14-0.01,0.2c0.01,0.06,0.02,0.11,0.05,0.16
				c0.03,0.04,0.06,0.08,0.11,0.1c0.04,0.03,0.1,0.04,0.16,0.04c0.07,0,0.13-0.01,0.19-0.04c0.05-0.03,0.1-0.07,0.14-0.11
				c0.04-0.05,0.07-0.1,0.1-0.16C72.12,22.23,72.14,22.17,72.15,22.11z"/>
			<path class="st1" d="M72.61,21.4h0.34l0.18,1.06h0.01l0.54-1.06h0.33l-0.81,1.49c-0.04,0.06-0.07,0.12-0.11,0.18
				c-0.03,0.06-0.07,0.11-0.12,0.15c-0.04,0.04-0.09,0.08-0.15,0.11c-0.06,0.03-0.13,0.04-0.21,0.04c-0.07,0-0.14-0.01-0.21-0.02
				l0.05-0.26c0.02,0,0.05,0.01,0.07,0.01c0.02,0,0.05,0.01,0.07,0.01c0.04,0,0.07,0,0.09-0.01c0.03-0.01,0.05-0.02,0.07-0.04
				c0.02-0.02,0.04-0.04,0.05-0.06c0.02-0.02,0.03-0.05,0.04-0.08l0.05-0.11L72.61,21.4z"/>
		</g>
		<g>
			<path class="st1" d="M78.42,20.52c0.03-0.07,0.07-0.13,0.12-0.18c0.05-0.05,0.11-0.09,0.18-0.12c0.07-0.03,0.14-0.04,0.22-0.04
				s0.15,0.01,0.22,0.04c0.07,0.03,0.13,0.07,0.18,0.12c0.05,0.05,0.09,0.11,0.12,0.18c0.03,0.07,0.04,0.14,0.04,0.22
				c0,0.08-0.01,0.15-0.04,0.22c-0.03,0.07-0.07,0.13-0.12,0.18c-0.05,0.05-0.11,0.09-0.18,0.12c-0.07,0.03-0.14,0.04-0.22,0.04
				s-0.15-0.01-0.22-0.04c-0.07-0.03-0.13-0.07-0.18-0.12c-0.05-0.05-0.09-0.11-0.12-0.18c-0.03-0.07-0.04-0.14-0.04-0.22
				C78.37,20.66,78.39,20.59,78.42,20.52z M78.51,20.93c0.02,0.06,0.06,0.11,0.1,0.15c0.04,0.04,0.09,0.08,0.15,0.1
				s0.12,0.04,0.18,0.04c0.06,0,0.12-0.01,0.18-0.04c0.06-0.02,0.1-0.06,0.15-0.1c0.04-0.04,0.07-0.09,0.1-0.15
				c0.02-0.06,0.04-0.12,0.04-0.19c0-0.07-0.01-0.13-0.04-0.19c-0.02-0.06-0.06-0.11-0.1-0.15c-0.04-0.04-0.09-0.08-0.15-0.1
				c-0.06-0.02-0.12-0.04-0.18-0.04c-0.07,0-0.13,0.01-0.18,0.04s-0.1,0.06-0.15,0.1c-0.04,0.04-0.07,0.09-0.1,0.15
				c-0.02,0.06-0.04,0.12-0.04,0.19C78.47,20.81,78.48,20.87,78.51,20.93z M78.97,20.41c0.08,0,0.14,0.02,0.17,0.05
				c0.04,0.03,0.06,0.08,0.06,0.14c0,0.06-0.02,0.1-0.05,0.13c-0.03,0.03-0.07,0.04-0.12,0.05l0.19,0.29H79.1l-0.18-0.28h-0.11v0.28
				h-0.1v-0.65H78.97z M78.92,20.7c0.02,0,0.04,0,0.06,0c0.02,0,0.04-0.01,0.05-0.01c0.02-0.01,0.03-0.02,0.04-0.03
				c0.01-0.01,0.01-0.03,0.01-0.06c0-0.02,0-0.04-0.01-0.05c-0.01-0.01-0.02-0.02-0.03-0.03c-0.01-0.01-0.03-0.01-0.05-0.01
				c-0.02,0-0.03,0-0.05,0h-0.13v0.21H78.92z"/>
		</g>
	</g>
</g>
</svg>
